<svg width="126" height="114" viewBox="0 0 126 114" fill="none" xmlns="http://www.w3.org/2000/svg">
<g clip-path="url(#clip0)">
<path fill-rule="evenodd" clip-rule="evenodd" d="M100.913 40.5466C104.75 24.9106 103.597 12.494 96.753 8.39543C89.7873 4.22368 78.575 9.65661 67.2351 21.3425C55.8952 9.65662 44.6828 4.2237 37.7172 8.39545C30.8725 12.4948 29.72 24.915 33.5592 40.5548C18.8426 44.9392 9.25 52.1198 9.25 60.2342C9.25 68.547 19.3175 75.8798 34.648 80.2301C30.7454 95.9711 31.8769 108.486 38.753 112.605C45.5065 116.649 56.2519 111.665 67.2351 100.708C78.2183 111.665 88.9637 116.649 95.7172 112.605C102.592 108.487 103.724 95.9753 99.8242 80.238C115.17 75.8886 125.25 68.552 125.25 60.2342C125.25 52.1147 115.645 44.9302 100.913 40.5466Z" fill="#FF4A60"/>
<path fill-rule="evenodd" clip-rule="evenodd" d="M92.3326 34.7249C96.1032 20.4041 94.9699 9.03193 88.2443 5.27806C81.3988 1.4572 70.3797 6.43316 59.2353 17.1361C48.091 6.43318 37.0719 1.45723 30.2264 5.27808C23.4996 9.03262 22.3671 20.4081 26.14 34.7325C11.6772 38.7481 2.25 45.3247 2.25 52.7565C2.25 60.3701 12.1439 67.0861 27.2101 71.0706C23.3748 85.4875 24.4868 96.9502 31.2443 100.722C37.8813 104.426 48.4415 99.8618 59.2353 89.8259C70.0292 99.8618 80.5894 104.426 87.2264 100.722C93.9828 96.9508 95.0956 85.4914 91.2625 71.0778C106.344 67.0943 116.25 60.3747 116.25 52.7565C116.25 45.32 106.811 38.7398 92.3326 34.7249Z" fill="white"/>
<path fill-rule="evenodd" clip-rule="evenodd" d="M90.5041 7.03219C95.1765 11.9189 95.6322 22.1929 92.3326 34.7249C95.6834 35.6541 98.7643 36.7206 101.521 37.9035C101.334 38.7734 101.132 39.6547 100.913 40.5465C105.483 41.9062 109.559 43.5354 113.008 45.3784C115.108 47.6862 116.25 50.1695 116.25 52.7565C116.25 60.3747 106.344 67.0943 91.2625 71.0778C95.0956 85.4914 93.9828 96.9508 87.2264 100.722C80.5894 104.426 70.0292 99.8618 59.2353 89.8259C49.2183 99.1395 39.4026 103.741 32.7369 101.394C31.9543 95.6876 32.6243 88.3925 34.648 80.2301C31.4765 79.3301 28.5302 78.3025 25.8517 77.1649C26.1982 75.2058 26.6517 73.1695 27.2101 71.0706C20.1316 69.1986 14.1948 66.7236 9.88943 63.8359C9.46826 62.6608 9.25 61.4581 9.25 60.2341C9.25 52.1198 18.8426 44.9392 33.5592 40.5548C29.72 24.915 30.8725 12.4948 37.7172 8.39543C40.1822 6.91911 43.1791 6.64563 46.5253 7.42644C50.5841 9.67595 54.9003 12.9727 59.2353 17.1361C59.8149 16.5795 60.3941 16.0384 60.9724 15.5132C63.0381 17.2275 65.1344 19.1777 67.2351 21.3425C75.6152 12.7067 83.9257 7.48568 90.5041 7.03219Z" fill="#EFE9FF"/>
<path fill-rule="evenodd" clip-rule="evenodd" d="M22.1637 11.9623C23.1685 7.78628 25.215 4.31032 28.6106 2.3499C32.0061 0.389489 36.0396 0.355145 40.1586 1.57295C44.2707 2.78875 48.6734 5.30272 53.1036 8.77773C54.8012 10.1093 56.5165 11.5928 58.2356 13.2165C59.9547 11.5928 61.67 10.1093 63.3675 8.77773C67.7977 5.30273 72.2005 2.78876 76.3126 1.57296C80.4315 0.355155 84.465 0.389495 87.8606 2.34991C91.2561 4.31033 93.3026 7.78629 94.3074 11.9623C95.3106 16.1314 95.3348 21.2013 94.5404 26.7754C94.2696 28.6762 93.9015 30.6493 93.4385 32.6821C95.2777 33.2611 97.0303 33.8852 98.6868 34.5508C103.911 36.6499 108.29 39.2058 111.399 42.1591C114.513 45.1173 116.5 48.6276 116.5 52.5485C116.5 56.4693 114.513 59.9796 111.399 62.9378C108.29 65.8911 103.911 68.447 98.6868 70.5462C96.7208 71.3361 94.6192 72.0676 92.3985 72.7347C92.8803 74.8293 93.2618 76.8611 93.5404 78.8164C94.3348 84.3905 94.3106 89.4604 93.3074 93.6295C92.3026 97.8055 90.2561 101.281 86.8606 103.242C83.465 105.202 79.4315 105.237 75.3126 104.019C71.2005 102.803 66.7977 100.289 62.3675 96.814C60.9993 95.7408 59.6195 94.5689 58.2356 93.3044C56.8516 94.5689 55.4718 95.7408 54.1036 96.814C49.6734 100.289 45.2707 102.803 41.1586 104.019C37.0396 105.237 33.0061 105.202 29.6106 103.242C26.215 101.281 24.1685 97.8055 23.1637 93.6295C22.1606 89.4604 22.1364 84.3905 22.9307 78.8164C23.2097 76.8586 23.5918 74.8241 24.0745 72.7266C21.8637 72.0617 19.7713 71.3329 17.8132 70.5462C12.5887 68.447 8.2101 65.8911 5.10113 62.9378C1.98702 59.9796 0 56.4693 0 52.5485C0 48.6276 1.98702 45.1173 5.10113 42.1591C8.2101 39.2058 12.5887 36.6499 17.8132 34.5508C19.4616 33.8885 21.2052 33.2672 23.0345 32.6906C22.5706 30.6548 22.202 28.6788 21.9307 26.7754C21.1364 21.2013 21.1606 16.1314 22.1637 11.9623ZM28.4193 73.9132C27.9835 75.8271 27.6385 77.6772 27.3857 79.4512C26.6392 84.6892 26.7133 89.1458 27.5389 92.5768C28.3627 96.0009 29.8753 98.1986 31.8606 99.3448C33.8458 100.491 36.5054 100.702 39.8827 99.7035C43.2668 98.7029 47.1633 96.5388 51.3263 93.2733C52.5346 92.3256 53.7574 91.2913 54.9885 90.175C51.1306 86.2636 47.2847 81.6726 43.6092 76.5347C38.2033 75.9583 33.0979 75.0691 28.4193 73.9132ZM61.4827 90.175C62.7137 91.2913 63.9366 92.3256 65.1448 93.2733C69.3079 96.5388 73.2044 98.7029 76.5885 99.7035C79.9658 100.702 82.6253 100.491 84.6106 99.3447C86.5958 98.1986 88.1084 96.0008 88.9323 92.5768C89.7578 89.1458 89.8319 84.6892 89.0854 79.4512C88.8329 77.6793 88.4885 75.8314 88.0534 73.92C83.3733 75.0748 78.2665 75.9628 72.8596 76.538C69.1848 81.6745 65.3397 86.2645 61.4827 90.175ZM66.896 77.0362C64.0487 80.7627 61.1349 84.1234 58.2356 87.0589C55.3358 84.1229 52.4215 80.7616 49.5738 77.0343C52.4062 77.2084 55.3037 77.2985 58.25 77.2985C61.1858 77.2985 64.0731 77.2091 66.896 77.0362ZM76.2333 71.5921C80.013 71.0674 83.5971 70.383 86.9347 69.561C85.9958 66.2617 84.8128 62.8144 83.3917 59.2748C82.3794 61.2366 81.305 63.2046 80.1697 65.1709C78.8948 67.379 77.5798 69.5218 76.2333 71.5921ZM81.0629 53.8604C79.6231 56.8548 78.0252 59.8853 76.2726 62.9209C74.3785 66.2016 72.3991 69.3229 70.3663 72.2615C66.4753 72.6124 62.4205 72.7985 58.25 72.7985C54.0685 72.7985 50.0033 72.6114 46.1029 72.2587C44.0708 69.3209 42.0921 66.2006 40.1986 62.9209C38.446 59.8853 36.8481 56.8548 35.4082 53.8604C37.0971 50.1775 39.0293 46.4281 41.1986 42.6709C43.225 39.1609 45.349 35.8335 47.5317 32.717C50.9928 32.4428 54.5765 32.2985 58.25 32.2985C61.9127 32.2985 65.4862 32.442 68.9378 32.7146C71.121 35.8318 73.2456 39.16 75.2726 42.6709C77.4418 46.4281 79.3741 50.1775 81.0629 53.8604ZM86.0157 53.9061C88.2004 58.881 89.9614 63.7478 91.2753 68.3733C93.3064 67.7581 95.2225 67.0884 97.0091 66.3706C101.919 64.398 105.741 62.1056 108.3 59.6752C110.853 57.2496 112 54.8408 112 52.5485C112 50.2561 110.853 47.8473 108.3 45.4218C105.741 42.9913 101.919 40.6989 97.0091 38.7263C95.5328 38.1332 93.9682 37.5729 92.3233 37.0491C90.8111 42.4102 88.6964 48.0987 86.0157 53.9061ZM87.9987 35.8047C86.8603 39.8446 85.3543 44.1092 83.4918 48.4957C82.1677 45.8144 80.7258 43.1161 79.1697 40.4209C77.7533 37.9676 76.2873 35.5949 74.7836 33.3127C79.5086 33.9096 83.9454 34.7543 87.9987 35.8047ZM89.1052 31.4428C89.5159 29.6127 89.843 27.8416 90.0854 26.1405C90.8319 20.9025 90.7578 16.446 89.9323 13.015C89.1084 9.59093 87.5958 7.39321 85.6106 6.24703C83.6253 5.10084 80.9658 4.88976 77.5885 5.8883C74.2044 6.88884 70.3079 9.05298 66.1448 12.3184C64.5925 13.5361 63.0161 14.8966 61.4291 16.3902C64.8064 19.9138 68.1647 23.9507 71.3973 28.4117C77.7587 29.016 83.728 30.0507 89.1052 31.4428ZM55.042 16.3902C53.4551 14.8966 51.8787 13.5361 50.3263 12.3184C46.1633 9.05297 42.2668 6.88884 38.8827 5.88829C35.5054 4.88976 32.8458 5.10083 30.8606 6.24702C28.8753 7.3932 27.3627 9.59092 26.5389 13.015C25.7133 16.446 25.6392 20.9025 26.3857 26.1405C26.6284 27.8438 26.9561 29.6173 27.3676 31.4499C32.7431 30.0565 38.7112 29.0204 45.0717 28.4147C48.305 23.9525 51.664 19.9145 55.042 16.3902ZM51.0166 27.9815C53.3952 24.9072 55.8172 22.0891 58.2356 19.5617C60.6535 22.0887 63.0751 24.9063 65.4534 27.98C63.0918 27.8601 60.6876 27.7985 58.25 27.7985C55.8021 27.7985 53.3878 27.8606 51.0166 27.9815ZM41.6849 33.3167C36.9613 33.9147 32.5259 34.7604 28.4744 35.8117C29.6125 39.8495 31.1179 44.1117 32.9793 48.4957C34.3035 45.8144 35.7454 43.1161 37.3014 40.4209C38.7171 37.969 40.1821 35.5976 41.6849 33.3167ZM30.4554 53.9061C27.7762 48.1018 25.6622 42.4162 24.1502 37.0576C22.515 37.5789 20.9593 38.1364 19.4909 38.7263C14.5814 40.6989 10.7589 42.9913 8.20038 45.4218C5.64699 47.8473 4.5 50.2561 4.5 52.5485C4.5 54.8408 5.64699 57.2496 8.20038 59.6752C10.7589 62.1056 14.5814 64.398 19.4909 66.3706C21.2698 67.0853 23.1768 67.7523 25.1981 68.3652C26.5118 63.7422 28.272 58.8781 30.4554 53.9061ZM33.0794 59.2748C31.6593 62.8121 30.477 66.2571 29.5383 69.5544C32.8743 70.377 36.4568 71.0622 40.235 71.5877C38.8894 69.5188 37.5754 67.3774 36.3014 65.1709C35.1662 63.2046 34.0917 61.2366 33.0794 59.2748Z" fill="black"/>
<g clip-path="url(#clip1)">
<path d="M53.1426 45.0173C50.5021 45.0067 48 47.0714 48 50.2748C48 56.5967 53.8244 57.2683 58 63.7827C62.1756 57.2683 68 56.5967 68 50.2748C68 44.8796 60.9028 42.7144 58 48.2538C56.8207 46.0034 54.9493 45.0246 53.1426 45.0173Z" fill="#FF4A60"/>
</g>
</g>
<defs>
<clipPath id="clip0">
<rect width="126" height="114" fill="white"/>
</clipPath>
<clipPath id="clip1">
<rect width="20" height="26" fill="white" transform="translate(48 44)"/>
</clipPath>
</defs>
</svg>
